<?xml version="1.0" encoding="UTF-8" standalone="no"?>
<svg
   xmlns:dc="http://purl.org/dc/elements/1.1/"
   xmlns:cc="http://creativecommons.org/ns#"
   xmlns:rdf="http://www.w3.org/1999/02/22-rdf-syntax-ns#"
   xmlns:svg="http://www.w3.org/2000/svg"
   xmlns="http://www.w3.org/2000/svg"
   xmlns:xlink="http://www.w3.org/1999/xlink"
   xmlns:sodipodi="http://sodipodi.sourceforge.net/DTD/sodipodi-0.dtd"
   xmlns:inkscape="http://www.inkscape.org/namespaces/inkscape"
   version="1.1"
   width="512"
   height="512"
   viewBox="0 0 100 100"
   id="svg83"
   sodipodi:docname="Icon.svg"
   inkscape:version="1.0 (4035a4fb49, 2020-05-01)">
  <metadata
     id="metadata87">
    <rdf:RDF>
      <cc:Work
         rdf:about="">
        <dc:format>image/svg+xml</dc:format>
        <dc:type
           rdf:resource="http://purl.org/dc/dcmitype/StillImage" />
      </cc:Work>
    </rdf:RDF>
  </metadata>
  <sodipodi:namedview
     inkscape:document-rotation="0"
     pagecolor="#ffffff"
     bordercolor="#666666"
     borderopacity="1"
     objecttolerance="10"
     gridtolerance="10"
     guidetolerance="10"
     inkscape:pageopacity="0"
     inkscape:pageshadow="2"
     inkscape:window-width="1920"
     inkscape:window-height="1018"
     id="namedview85"
     showgrid="false"
     inkscape:zoom="1.6640625"
     inkscape:cx="152.93897"
     inkscape:cy="256"
     inkscape:window-x="1912"
     inkscape:window-y="-8"
     inkscape:window-maximized="1"
     inkscape:current-layer="svg83" />
  <defs
     id="defs69">
    <linearGradient
       id="middle-1-gradient"
       gradientUnits="userSpaceOnUse"
       x1="50"
       y1="98"
       x2="50"
       y2="2"
       spreadMethod="pad">
      <stop
         offset="0%"
         stop-color="#FFFFFF"
         stop-opacity="0.1"
         id="stop10" />
      <stop
         offset="100%"
         stop-color="#FFFFFF"
         stop-opacity="0.5"
         id="stop12" />
    </linearGradient>
    <linearGradient
       id="gloss-top-gradient"
       gradientUnits="userSpaceOnUse"
       x1="50"
       y1="70"
       x2="50"
       y2="6"
       spreadMethod="pad">
      <stop
         offset="0%"
         stop-color="#FFFFFF"
         stop-opacity="0"
         id="stop15" />
      <stop
         offset="100%"
         stop-color="#FFFFFF"
         stop-opacity="0.4"
         id="stop17" />
    </linearGradient>
    <linearGradient
       id="gloss-right-gradient"
       gradientUnits="userSpaceOnUse"
       x1="37"
       y1="24"
       x2="92"
       y2="57"
       spreadMethod="pad">
      <stop
         offset="0%"
         stop-color="#FFFFFF"
         stop-opacity="0"
         id="stop20" />
      <stop
         offset="100%"
         stop-color="#FFFFFF"
         stop-opacity="0.4"
         id="stop22" />
    </linearGradient>
    <linearGradient
       id="gloss-left-gradient"
       gradientUnits="userSpaceOnUse"
       x1="63"
       y1="57"
       x2="8"
       y2="24"
       spreadMethod="pad">
      <stop
         offset="0%"
         stop-color="#FFFFFF"
         stop-opacity="0"
         id="stop25" />
      <stop
         offset="100%"
         stop-color="#FFFFFF"
         stop-opacity="0.4"
         id="stop27" />
    </linearGradient>
    <g
       id="background">
      <path
         fill="url(#background-gradient)"
         stroke="none"
         d=" M 96.1 30.55 Q 92.25 21.6 85.35 14.65 78.45 7.75 69.5 3.95 60.2 0 50.05 0 39.85 0 30.55 3.95 21.55 7.75 14.65 14.65 7.75 21.6 3.95 30.55 0 39.85 0 50.05 0 60.2 3.95 69.5 7.75 78.45 14.65 85.35 21.55 92.25 30.55 96.1 39.85 100 50.05 100 60.2 100 69.5 96.1 78.45 92.25 85.35 85.35 92.25 78.45 96.1 69.5 100 60.2 100 50.05 100 39.85 96.1 30.55 Z"
         id="path30" />
    </g>
    <g
       id="middle-1">
      <path
         fill="url(#middle-1-gradient)"
         stroke="none"
         d=" M 94.1 31.45 Q 90.45 22.85 83.85 16.2 77.2 9.6 68.65 6 59.75 2.2 50.05 2.2 40.3 2.2 31.4 6 22.8 9.6 16.2 16.2 9.6 22.85 5.95 31.45 2.2 40.3 2.2 50.05 2.2 59.75 5.95 68.65 9.6 77.2 16.2 83.85 22.8 90.45 31.4 94.1 40.3 97.85 50.05 97.85 59.75 97.85 68.65 94.1 77.2 90.45 83.85 83.85 90.45 77.2 94.1 68.65 97.85 59.75 97.85 50.05 97.85 40.3 94.1 31.45 M 82.5 17.55 Q 88.85 23.9 92.4 32.15 96 40.7 96 50.05 96 59.4 92.4 67.9 88.85 76.15 82.5 82.5 76.15 88.85 67.9 92.4 59.4 96 50.05 96 40.7 96 32.15 92.4 23.9 88.85 17.55 82.5 11.15 76.15 7.65 67.9 4.05 59.4 4.05 50.05 4.05 40.7 7.65 32.15 11.15 23.9 17.55 17.55 23.9 11.15 32.15 7.7 40.7 4.05 50.05 4.05 59.4 4.05 67.9 7.7 76.15 11.15 82.5 17.55 Z"
         id="path33" />
    </g>
    <mask
       id="mask">
      <path
         fill="#FFFFFF"
         stroke="none"
         d=" M 96.1 30.5 Q 92.25 21.55 85.35 14.65 78.45 7.7 69.5 3.9 60.2 0 50.05 0 39.85 0 30.55 3.9 21.55 7.7 14.65 14.65 7.75 21.55 3.95 30.5 0 39.85 0 50 0 60.15 3.95 69.45 7.75 78.4 14.65 85.3 21.55 92.25 30.55 96.05 39.85 100 50.05 100 60.2 100 69.5 96.05 78.45 92.25 85.35 85.3 92.25 78.4 96.1 69.45 100 60.15 100 50 100 39.85 96.1 30.5 Z"
         id="path36" />
    </mask>
    <g
       id="gloss-top">
      <path
         fill="url(#gloss-top-gradient)"
         stroke="none"
         d=" M 81.5 40.8 Q 84.2 36.05 84.2 30.9 84.2 25.7 81.5 21 78.95 16.4 74.2 12.9 64.2 5.45 50.05 5.45 35.8 5.45 25.8 12.9 15.8 20.35 15.8 30.9 15.8 41.45 25.8 48.9 35.8 56.35 50.05 56.35 64.2 56.35 74.2 48.9 78.95 45.4 81.5 40.8 Z"
         id="path39" />
    </g>
    <g
       id="gloss-left">
      <path
         fill="url(#gloss-left-gradient)"
         stroke="none"
         d=" M 72.2 5.2 Q 61.75 0 50.05 0 39.85 0 30.55 3.95 21.55 7.75 14.65 14.65 7.75 21.6 3.95 30.55 0 39.85 0 50.05 0 59.65 3.55 68.6 7 77.15 13.3 84 13.5 78.65 17.05 71.95 24 58.6 40.6 51.7 57.1 44.85 66.3 24.35 69.15 17.95 70.95 10.95 72.2 5.25 72.2 5.2 Z"
         id="path42" />
    </g>
    <g
       id="gloss-right">
      <path
         fill="url(#gloss-right-gradient)"
         stroke="none"
         d=" M 96.1 30.55 Q 92.25 21.6 85.35 14.65 78.45 7.75 69.45 3.95 60.15 0 50 0 38.25 0 27.8 5.2 27.8 5.25 29 10.95 30.85 17.95 33.7 24.35 42.9 44.85 59.4 51.7 76 58.6 83 71.95 86.5 78.65 86.7 84 93 77.15 96.45 68.6 100 59.65 100 50.05 100 39.85 96.1 30.55 Z"
         id="path45" />
    </g>
    <g
       id="x-icon">
      <path
         fill="#FF0000"
         fill-opacity="0"
         stroke="none"
         d=" M 57.8 42.2 L 42.2 42.2 42.2 57.8 57.8 57.8 57.8 42.2 Z"
         id="path48" />
    </g>
    <linearGradient
       id="x-background-gradient"
       x1="0"
       y1="0"
       y2="1"
       x2="0">
      <stop
         stop-color="#22D3B3"
         offset="0%"
         id="stop51" />
      <stop
         stop-color="#01163E"
         offset="100%"
         id="stop53" />
    </linearGradient>
    <linearGradient
       id="background-gradient"
       x1="0"
       y1="0"
       y2="1"
       x2="0">
      <stop
         stop-color="#4ADCFD"
         offset="0%"
         id="stop56" />
      <stop
         stop-color="#0634A7"
         offset="100%"
         id="stop58" />
    </linearGradient>
    <g
       transform="scale(0.5606952429368535) translate(-64.32449340820312 -67.6500015258789)"
       id="picture">
      <path
         d="M70.32 77.178c2.773 0 3.882.953 6.1 3.335 3.327 2.382 7.209 6.194 14.418 6.194s11.645-3.812 14.417-6.194 3.882-3.335 6.655-3.335 3.882.953 6.1 3.335c3.327 2.382 7.209 6.194 14.418 6.194 7.763 0 11.645-3.812 14.418-6.194s3.881-3.335 6.654-3.335 3.882.953 6.1 3.335c3.327 2.382 7.209 6.194 14.418 6.194 7.763 0 11.645-3.812 14.418-6.194s3.881-3.335 6.654-3.335 3.882.953 6.1 3.335c3.327 2.382 7.209 6.194 14.418 6.194s11.645-3.812 14.418-6.194 3.881-3.335 6.654-3.335c3.327 0 5.545-1.905 5.545-4.764s-2.218-4.764-5.545-4.764c-7.763 0-11.645 3.811-14.418 6.193s-3.882 3.335-6.654 3.335-3.882-.953-6.1-3.335c-2.773-2.382-6.655-6.193-14.418-6.193s-11.645 3.811-14.418 6.193-3.882 3.335-6.654 3.335-3.882-.953-6.1-3.335c-2.773-2.382-6.655-6.193-14.418-6.193s-11.645 3.811-14.418 6.193-3.882 3.335-6.654 3.335-3.882-.953-6.1-3.335c-2.773-2.382-6.655-6.193-14.418-6.193s-11.645 3.811-14.418 6.193-3.882 3.335-6.654 3.335-3.882-.953-6.1-3.335c-2.773-2.382-6.655-6.193-14.418-6.193-3.327 0-5.546 1.905-5.546 4.764s2.219 4.764 5.546 4.764zm166.36 14.293c-7.763 0-11.645 3.812-14.418 6.194S218.38 101 215.608 101s-3.882-.953-6.1-3.335c-2.773-2.382-6.655-6.194-14.418-6.194s-11.645 3.812-14.418 6.194S176.79 101 174.018 101s-3.882-.953-6.1-3.335c-2.773-2.382-6.655-6.194-14.418-6.194s-11.645 3.812-14.418 6.194S135.2 101 132.428 101s-3.882-.953-6.1-3.335c-2.773-2.382-6.655-6.194-14.418-6.194s-11.645 3.812-14.418 6.194S93.61 101 90.838 101s-3.882-.953-6.1-3.335c-2.773-2.382-6.655-6.194-14.418-6.194-3.327 0-5.546 1.906-5.546 4.765S66.993 101 70.32 101c2.773 0 3.882.953 6.1 3.335 3.327 2.382 7.209 6.194 14.418 6.194s11.645-3.812 14.417-6.194S109.137 101 111.91 101s3.882.953 6.1 3.335c3.327 2.382 7.209 6.194 14.418 6.194 7.763 0 11.645-3.812 14.418-6.194S150.727 101 153.5 101s3.882.953 6.1 3.335c3.327 2.382 7.209 6.194 14.418 6.194 7.763 0 11.645-3.812 14.418-6.194S192.317 101 195.09 101s3.882.953 6.1 3.335c3.327 2.382 7.209 6.194 14.418 6.194s11.645-3.812 14.418-6.194S233.907 101 236.68 101c3.327 0 5.545-1.906 5.545-4.764s-2.218-4.765-5.545-4.765zm0 23.822c-7.763 0-11.645 3.811-14.418 6.194-2.218 2.382-3.882 3.335-6.1 3.335s-3.881-.953-6.1-3.335c-3.327-2.383-7.209-6.194-14.972-6.194s-11.645 3.811-14.418 6.194c-2.218 2.382-3.882 3.335-6.1 3.335-2.772 0-3.882-.953-6.1-3.335-3.327-2.383-7.209-6.194-14.972-6.194s-11.645 3.811-14.418 6.194c-2.218 2.382-3.882 3.335-6.1 3.335-2.772 0-3.882-.953-6.1-3.335-3.327-2.383-7.209-6.194-14.972-6.194s-11.645 3.811-14.418 6.194-3.882 3.335-6.654 3.335-3.882-.953-6.1-3.335c-2.773-2.383-6.655-6.194-14.418-6.194-3.327 0-5.546 1.906-5.546 4.764s2.219 4.765 5.546 4.765c2.773 0 3.882.953 6.1 3.335 3.327 2.382 7.209 6.193 14.418 6.193s11.645-3.811 14.417-6.193 3.882-3.335 6.655-3.335 3.882.953 6.1 3.335c2.772 2.858 6.654 6.193 14.418 6.193s11.645-3.811 14.418-6.193c2.218-2.382 3.881-3.335 6.1-3.335 2.772 0 3.881.953 6.1 3.335 2.772 2.858 6.654 6.193 14.417 6.193s11.645-3.811 14.418-6.193c2.218-2.382 3.882-3.335 6.1-3.335 2.773 0 3.882.953 6.1 3.335 2.772 2.858 6.654 6.193 14.418 6.193s11.645-3.811 14.418-6.193c2.218-2.382 3.881-3.335 6.1-3.335 3.327 0 5.545-1.906 5.545-4.765s-.555-4.764-3.882-4.764zm-102.644 77.136c-5.357 0-9.822 4.464-9.822 9.821s4.465 9.821 9.822 9.821 9.821-4.464 9.821-9.821-4.464-9.821-9.821-9.821zm0 16.071c-3.393 0-6.25-2.857-6.25-6.25s2.857-6.25 6.25-6.25 6.25 2.857 6.25 6.25-2.857 6.25-6.25 6.25zm24.107-28.571c0-3.929-3.215-7.143-7.143-7.143s-7.143 3.214-7.143 7.143 3.214 7.142 7.143 7.142 7.143-3.214 7.143-7.142zm-10.715 0c0-1.965 1.608-3.572 3.572-3.572s3.571 1.607 3.571 3.572-1.607 3.571-3.571 3.571-3.572-1.607-3.572-3.571zm15.179 8.928c-7.321 0-13.393 6.072-13.393 13.393s6.072 13.393 13.393 13.393S176 209.57 176 202.25s-6.072-13.393-13.393-13.393zm0 23.214c-5.357 0-9.821-4.464-9.821-9.821s4.464-9.821 9.821-9.821 9.821 4.464 9.821 9.821-4.464 9.821-9.821 9.821zm31.25-23.214H186a35.038 35.038 0 0 0-5.179-12.5l5.536-5.536c1.429-1.428 2.143-3.214 2.143-5 0-1.964-.714-3.75-2.143-5-2.857-2.857-7.321-2.857-10.179 0l-5.535 5.358a35.038 35.038 0 0 0-12.5-5.179v-7.857c0-3.929-3.215-7.143-7.143-7.143s-7.143 3.214-7.143 7.143V161a35.038 35.038 0 0 0-12.5 5.179l-5.536-5.536c-1.428-1.429-3.214-1.964-5-2.143-1.964 0-3.75.714-5 2.143-1.607 1.429-2.321 3.214-2.321 5 0 1.964.714 3.75 2.143 5l5.536 5.536a35.038 35.038 0 0 0-5.179 12.5h-7.857c-3.929 0-7.143 3.214-7.143 7.142s3.214 7.143 7.143 7.143H116a35.038 35.038 0 0 0 5.179 12.5L115.643 221c-1.429 1.607-2.143 3.393-2.143 5.357s.714 3.75 2.143 5c1.428 1.429 3.214 2.143 5 2.143 1.964 0 3.75-.714 5-2.143l5.536-5.536a35.038 35.038 0 0 0 12.5 5.179v7.857c0 3.929 3.214 7.143 7.142 7.143s7.143-3.214 7.143-7.143V231a35.038 35.038 0 0 0 12.5-5.179l5.536 5.536c1.428 1.429 3.214 2.143 5 2.143 1.964 0 3.75-.714 5-2.143 1.786-1.428 2.5-3.214 2.5-5 0-1.964-.714-3.75-2.143-5l-5.536-5.714a35.038 35.038 0 0 0 5.179-12.5h7.857c3.929 0 7.143-3.214 7.143-7.143s-3.214-7.143-7.143-7.143zm0 10.714h-9.286c-.893 0-1.607.715-1.785 1.429-.715 5-2.679 9.643-5.715 13.75-.535.714-.357 1.607.179 2.321l6.607 6.608c.714.714 1.071 1.607 1.071 2.5 0 .892-.357 1.785-1.071 2.5-.714.892-1.607 1.25-2.5 1.25s-1.786-.358-2.5-1.072l-6.607-6.607c-.536-.536-1.607-.714-2.322-.179-4.107 3.036-8.75 5-13.75 5.715-.892.178-1.428.893-1.428 1.785v9.286c0 1.964-1.607 3.571-3.572 3.571s-3.57-1.607-3.57-3.571v-9.286c0-.892-.715-1.607-1.43-1.785-5-.715-9.642-2.679-13.75-5.715-.357-.178-.714-.357-1.07-.357-.537 0-.894.179-1.25.536l-6.608 6.607c-.893.714-1.786 1.071-2.857 1.071-.893 0-1.786-.357-2.5-1.07-.714-.715-1.072-1.608-1.072-2.5 0-.894.358-1.787 1.072-2.5l6.607-6.608c.536-.536.714-1.607.179-2.321-3.036-4.108-5-8.75-5.715-13.75-.178-.893-.893-1.429-1.785-1.429h-9.286c-1.964 0-3.572-1.607-3.572-3.571s1.608-3.572 3.572-3.572h9.286c.892 0 1.607-.714 1.785-1.428.715-5 2.679-9.643 5.715-13.75.535-.715.357-1.608-.179-2.322l-6.607-6.607c-.714-.893-1.072-1.786-1.072-2.857 0-.893.358-1.786 1.072-2.5.714-.714 1.607-1.071 2.5-1.071s1.786.357 2.5 1.07l6.607 6.608c.536.536 1.607.714 2.321.179 4.108-3.036 8.75-5 13.75-5.715.893-.178 1.429-.892 1.429-1.785v-9.286c0-1.964 1.607-3.571 3.571-3.571s3.572 1.607 3.572 3.571v9.286c0 .893.714 1.607 1.428 1.785 5 .715 9.643 2.679 13.75 5.715.715.535 1.607.357 2.322-.179l6.607-6.607c1.428-1.429 3.571-1.429 5 0 1.071.714 1.428 1.607 1.428 2.5s-.357 1.786-1.071 2.5l-6.607 6.607c-.536.536-.714 1.607-.179 2.321 3.036 4.108 5 8.75 5.715 13.75.178.893.892 1.429 1.785 1.429h9.286a3.582 3.582 0 0 1 3.571 3.571c0 2.143-1.607 3.75-3.571 3.75z"
         id="path61" />
    </g>
    <linearGradient
       id="picture-gradient"
       x1="0.25267383"
       y1="-8.5339404e-07"
       y2="99.747645"
       x2="0.25267383"
       gradientTransform="scale(0.99747649,1.0025299)"
       gradientUnits="userSpaceOnUse">
      <stop
         stop-color="#ffffff"
         offset="0%"
         id="stop64" />
      <stop
         stop-color="#e5eff9"
         offset="100%"
         id="stop66" />
    </linearGradient>
  </defs>
  <use
     xlink:href="#background"
     fill="url(#background-gradient)"
     id="use71" />
  <use
     xlink:href="#middle-1"
     id="use73" />
  <g
     id="g77"
     transform="matrix(0.5,0,0,0.5,25,25)">
    <desc
       id="desc48">Искомая  группа</desc>
    <use
       height="100%"
       width="100%"
       y="0"
       x="0"
       style="fill:url(#picture-gradient)"
       id="use75"
       fill="url(#picture-gradient)"
       xlink:href="#picture" />
  </g>
  <use
     xlink:href="#gloss-top"
     opacity="1"
     id="use81" />
</svg>
